<?xml version="1.0" encoding="utf-8"?>
<!-- Generator: Adobe Illustrator 16.0.3, SVG Export Plug-In . SVG Version: 6.00 Build 0)  -->
<!DOCTYPE svg PUBLIC "-//W3C//DTD SVG 1.1//EN" "http://www.w3.org/Graphics/SVG/1.1/DTD/svg11.dtd">
<svg x="0px" y="0px" width="640px" height="480px" viewBox="0 0 640 480" enable-background="new 0 0 640 480" xml:space="preserve">
    <g id="_x36_74cf9c8-0aa2-4ec0-9914-841708487ad9" transform="matrix(5.319148612378591,0,0,5.319148612378591,123.42455658894681,3.191488698199091)">
        <path fill="#FFFDFB" d="M2.226,46.571l2.966-11.898h3.39l2.966,11.898H8.92l-0.587-2.554H5.432l-0.565,2.554H2.226z M7.855,41.888
		L6.877,37.52l-0.978,4.368H7.855z M14.853,40.334v0.609l0,0c0,1.268,0.138,2.202,0.413,2.803l0,0l0,0
		c0.283,0.594,0.797,0.891,1.543,0.891l0,0h0.141l0,0c1.094,0,1.641-0.703,1.641-2.108l0,0h2.467v0.13l0,0
		c0,1.442-0.351,2.488-1.054,3.14l0,0l0,0c-0.695,0.645-1.76,0.967-3.195,0.967l0,0l0,0c-1.55,0-2.68-0.46-3.39-1.38l0,0l0,0
		c-0.71-0.913-1.065-2.394-1.065-4.444l0,0v-0.609l0,0c0-2.05,0.355-3.535,1.065-4.455l0,0l0,0c0.71-0.913,1.84-1.369,3.39-1.369
		l0,0l0,0c1.441,0,2.51,0.326,3.205,0.978l0,0l0,0c0.695,0.652,1.043,1.71,1.043,3.173l0,0v0.543H18.59l0,0
		c0-0.869-0.12-1.514-0.359-1.934l0,0l0,0c-0.239-0.42-0.666-0.63-1.282-0.63l0,0h-0.141l0,0c-0.746,0-1.26,0.297-1.543,0.891l0,0
		l0,0C14.99,38.132,14.853,39.067,14.853,40.334L14.853,40.334z M21.861,46.571l2.966-11.898h3.39l2.966,11.898h-2.63l-0.576-2.554
		h-2.912l-0.554,2.554H21.861z M27.49,41.888l-0.978-4.368l-0.967,4.368H27.49z M40.887,40.334v0.609l0,0
		c0,2.036-0.388,3.484-1.163,4.346l0,0l0,0c-0.775,0.855-2.054,1.282-3.836,1.282l0,0h-3.64V34.706h3.64l0,0
		c1.782,0,3.061,0.427,3.836,1.282l0,0l0,0C40.5,36.85,40.887,38.299,40.887,40.334L40.887,40.334z M34.715,36.836v7.606h1.032l0,0
		c0.992,0,1.681-0.275,2.064-0.826l0,0l0,0c0.377-0.543,0.565-1.434,0.565-2.673l0,0v-0.609l0,0c0-1.239-0.188-2.13-0.565-2.673l0,0
		l0,0c-0.384-0.551-1.072-0.826-2.064-0.826l0,0H34.715z M42.333,46.571V34.706h7.258v2.13h-4.792v2.619h4.031v2.13h-4.031v2.858
		h4.792v2.13H42.333z M60.12,41.356l0.065-2.38l-2.119,7.595h-2.51l-2.119-7.595l0.076,2.38v5.216h-2.456V34.706h3.629l2.13,7.595
		l2.119-7.595h3.651v11.866H60.12V41.356z M64.347,34.706h2.467v11.866h-2.467V34.706z M68.573,34.706h2.467v4.651l2.923-4.651
		h2.977l-3.325,4.759l3.325,7.106h-2.738l-2.152-4.857l-1.01,1.434v3.423h-2.467V34.706z M82.341,46.767L82.341,46.767
		L82.341,46.767c-1.55,0-2.691-0.46-3.423-1.38l0,0l0,0c-0.724-0.927-1.087-2.409-1.087-4.444l0,0v-0.609l0,0
		c0-2.036,0.362-3.517,1.087-4.444l0,0l0,0c0.732-0.92,1.872-1.38,3.423-1.38l0,0l0,0c1.565,0,2.713,0.46,3.444,1.38l0,0l0,0
		c0.732,0.927,1.098,2.409,1.098,4.444l0,0v0.609l0,0c0,2.036-0.366,3.517-1.098,4.444l0,0l0,0
		C85.053,46.307,83.905,46.767,82.341,46.767z M82.286,44.637L82.286,44.637h0.13l0,0c0.732,0,1.239-0.301,1.521-0.902l0,0l0,0
		c0.29-0.601,0.435-1.532,0.435-2.793l0,0v-0.609l0,0c0-1.26-0.145-2.191-0.435-2.792l0,0l0,0c-0.283-0.601-0.79-0.902-1.521-0.902
		l0,0h-0.13l0,0c-0.732,0-1.242,0.301-1.532,0.902l0,0l0,0c-0.29,0.601-0.435,1.532-0.435,2.792l0,0v0.609l0,0
		c0,1.26,0.145,2.191,0.435,2.793l0,0l0,0C81.044,44.337,81.555,44.637,82.286,44.637z M94.662,34.706h2.347v11.866h-2.597
		l-3.836-7.367l0.076,2.39v4.977h-2.325V34.706h2.597l3.814,7.367l-0.076-2.39V34.706z" />
    </g>
    <g id="b8cf4218-6c14-440a-b96a-64ae7ab55e53" transform="matrix(1.0432666354709201,0,0,1.0432666354709201,0.7558117192180376,-2.0647705418484605)">
        <path fill="#FFFDFB" d="M108.888,215.021c0-18.782-15.226-34.007-34.008-34.007h-6.742c-18.033,3.986-31.874,21.632-27.427,40.899
		c4.884,21.162,26.064,32.566,46.424,25.703c1.129-1.066,3.51-0.598,3.5,1.414l-0.172,34.007h18.426L108.888,215.021z
		 M88.487,224.951c-2.633,0-2.633-4.081,0-4.081C91.118,220.87,91.118,224.951,88.487,224.951z" />
        <path fill="#FFFDFB" d="M36.379,220.638c-2.148-16.896,6.383-32.116,20.085-39.624H34.071c-18.782,0-34.008,15.226-34.008,34.007
		v68.016h18.034v-14.779c0-2.632,4.081-2.632,4.081,0v14.779h20.055v-14.779c0-2.632,4.081-2.632,4.081,0v14.779h18.362v-14.779
		c0-2.632,4.081-2.632,4.081,0v14.78h17.626c0.051-10.319,0.102-20.637,0.156-30.957C64.328,258.49,39.436,244.698,36.379,220.638z" />
    </g>
    <g id="_x35_3877458-4430-4d2f-b76e-11a22aaca8e5" transform="matrix(4.166009959684369,0,0,4.166009959684369,122.7386397002387,44.21082430812137)">
        <path fill="#FFFDFB" d="M11.483,50.007h-0.217H3.344H3.116H3.007v2.217h0.38c0.217,0,0.304-0.12,0.315-0.359
		c0-0.109,0.033-0.5,0.065-1.206h3.151v9.497c-0.185,0-0.337,0.011-0.489,0.011s-0.272,0.022-0.348,0.022H5.941
		c-0.196,0.011-0.304,0.098-0.304,0.271v0.304h1.282h0.771h1.293V60.46c0-0.174-0.109-0.261-0.304-0.271H8.527
		c-0.076,0-0.185-0.022-0.337-0.022c-0.152,0-0.315-0.011-0.5-0.011v-9.497h3.14c0.043,0.782,0.054,1.174,0.054,1.206
		c0.022,0.239,0.12,0.359,0.337,0.359h0.369v-2.217H11.483z M29.433,50.007h-0.782h-1.467v0.293c0,0.163,0.098,0.25,0.304,0.271
		h0.174c0.109,0,0.261,0.011,0.445,0.011c0.185,0,0.369,0.022,0.543,0.022v6.052c0,0.5-0.076,0.956-0.228,1.402
		c-0.152,0.435-0.359,0.815-0.652,1.141c-0.282,0.315-0.619,0.554-1.032,0.739c-0.413,0.185-0.869,0.272-1.38,0.272
		c-0.522,0-0.989-0.087-1.402-0.272s-0.761-0.435-1.032-0.761c-0.293-0.315-0.489-0.695-0.641-1.119
		c-0.152-0.435-0.228-0.902-0.228-1.402v-6.052c0.185,0,0.359-0.022,0.543-0.022c0.185,0,0.337-0.011,0.445-0.011h0.185
		c0.196-0.022,0.304-0.109,0.304-0.271v-0.293h-1.478h-0.782h-1.271v0.293c0,0.163,0.087,0.25,0.283,0.271h0.152
		c0.076,0,0.185,0.011,0.337,0.011c0.152,0,0.326,0.022,0.5,0.022v6.052c0,0.587,0.098,1.141,0.283,1.652
		c0.174,0.522,0.456,0.978,0.804,1.358c0.348,0.38,0.793,0.684,1.293,0.902c0.5,0.206,1.076,0.315,1.706,0.315
		c0.619,0,1.184-0.109,1.684-0.315c0.5-0.218,0.945-0.522,1.293-0.902c0.348-0.38,0.619-0.837,0.804-1.358
		c0.185-0.511,0.293-1.065,0.293-1.652v-6.052c0.185,0,0.337-0.022,0.489-0.022c0.152,0,0.272-0.011,0.348-0.011h0.13
		c0.207-0.022,0.304-0.109,0.304-0.271v-0.293H29.433z M47.59,50.007h-0.207h-7.932h-0.228h-0.098v2.217h0.38
		c0.207,0,0.304-0.12,0.315-0.359c0-0.109,0.033-0.5,0.065-1.206h3.14v9.497c-0.174,0-0.326,0.011-0.478,0.011
		c-0.152,0-0.282,0.022-0.359,0.022h-0.13c-0.196,0.011-0.304,0.098-0.304,0.271v0.304h1.271h0.782h1.293V60.46
		c0-0.174-0.109-0.261-0.304-0.271h-0.152c-0.076,0-0.185-0.022-0.337-0.022c-0.152,0-0.315-0.011-0.5-0.011v-9.497h3.129
		c0.043,0.782,0.065,1.174,0.065,1.206c0.011,0.239,0.119,0.359,0.337,0.359h0.359v-2.217H47.59z M66.486,55.375
		c0-0.815-0.131-1.575-0.38-2.249c-0.239-0.674-0.587-1.25-1.043-1.739c-0.456-0.478-0.989-0.858-1.619-1.119
		c-0.619-0.261-1.337-0.402-2.097-0.402s-1.445,0.141-2.064,0.402c-0.63,0.261-1.173,0.641-1.63,1.119
		c-0.456,0.489-0.804,1.065-1.054,1.739c-0.239,0.674-0.38,1.434-0.38,2.249c0,0.837,0.141,1.597,0.38,2.271
		c0.25,0.663,0.598,1.25,1.054,1.728c0.456,0.489,1,0.858,1.63,1.119c0.619,0.25,1.304,0.391,2.064,0.391s1.478-0.141,2.097-0.391
		c0.63-0.261,1.163-0.63,1.619-1.119c0.456-0.478,0.804-1.065,1.043-1.728C66.355,56.972,66.486,56.212,66.486,55.375z
		 M65.671,55.375c0,0.761-0.098,1.435-0.304,2.021c-0.217,0.598-0.511,1.119-0.891,1.521c-0.38,0.413-0.837,0.75-1.369,0.967
		c-0.532,0.206-1.108,0.315-1.76,0.315c-0.641,0-1.217-0.109-1.749-0.315c-0.532-0.218-0.989-0.554-1.369-0.967
		c-0.38-0.402-0.684-0.924-0.902-1.521c-0.206-0.586-0.304-1.26-0.304-2.021c0-0.739,0.098-1.423,0.304-2.021
		c0.218-0.598,0.522-1.108,0.902-1.521c0.38-0.413,0.837-0.75,1.369-0.956c0.533-0.217,1.108-0.337,1.749-0.337
		c0.652,0,1.228,0.12,1.76,0.337c0.533,0.207,0.989,0.543,1.369,0.956c0.38,0.413,0.674,0.924,0.891,1.521
		C65.573,53.951,65.671,54.636,65.671,55.375z M84.165,60.189h-0.109H83.86c-0.087,0-0.185-0.022-0.272-0.022l-3.227-4.064
		c-0.087-0.12-0.217-0.228-0.337-0.304c0.478-0.043,0.902-0.152,1.282-0.315c0.38-0.163,0.684-0.38,0.956-0.641
		c0.261-0.261,0.467-0.565,0.609-0.891c0.141-0.337,0.217-0.717,0.217-1.13c0-0.924-0.304-1.608-0.913-2.097
		c-0.608-0.478-1.543-0.717-2.793-0.717h-2.608h-1.282v0.293c0,0.163,0.087,0.25,0.293,0.271h0.152c0.076,0,0.174,0.011,0.326,0.011
		c0.152,0,0.326,0.022,0.511,0.022v9.551c-0.185,0-0.359,0.011-0.511,0.011c-0.152,0-0.25,0.022-0.326,0.022h-0.152
		c-0.206,0.011-0.304,0.098-0.304,0.271v0.304h1.293h0.771h1.282V60.46c0-0.174-0.109-0.261-0.304-0.271h-0.152
		c-0.076,0-0.185-0.022-0.337-0.022c-0.152,0-0.304-0.011-0.489-0.011v-4.259h1.282c0.207,0,0.359,0.011,0.456,0.054
		c0.087,0.054,0.174,0.141,0.272,0.25l3.455,4.368c0.054,0.076,0.098,0.12,0.163,0.152c0.065,0.022,0.141,0.044,0.217,0.044h0.076
		h0.587h0.402V60.46C84.458,60.286,84.36,60.199,84.165,60.189z M79.286,55.321h-1.738v-4.705h1.836
		c0.967,0,1.695,0.195,2.195,0.565c0.5,0.359,0.75,0.945,0.75,1.706c0,0.38-0.065,0.695-0.206,1
		c-0.131,0.304-0.348,0.543-0.609,0.761c-0.25,0.217-0.576,0.391-0.956,0.5C80.177,55.255,79.753,55.321,79.286,55.321z
		 M99.594,56.516c-0.152-0.283-0.369-0.565-0.63-0.761c-0.261-0.196-0.532-0.358-0.848-0.5c-0.326-0.141-0.674-0.261-1.011-0.37
		c-0.326-0.098-0.663-0.228-0.989-0.326c-0.315-0.13-0.609-0.261-0.858-0.435c-0.261-0.163-0.456-0.359-0.608-0.609
		c-0.152-0.239-0.25-0.543-0.25-0.913c0-0.271,0.065-0.532,0.174-0.782c0.098-0.261,0.25-0.478,0.456-0.674
		c0.195-0.196,0.435-0.348,0.739-0.456c0.304-0.109,0.641-0.163,1.032-0.163c0.739,0,1.402,0.12,2.01,0.38
		c0.043,0.858,0.076,1.347,0.076,1.424c0.022,0.25,0.109,0.38,0.326,0.38h0.359v-2.206c-0.956-0.413-1.869-0.619-2.771-0.619
		c-0.5,0-0.935,0.076-1.337,0.228c-0.391,0.152-0.717,0.348-0.967,0.608c-0.261,0.261-0.478,0.543-0.609,0.88
		c-0.141,0.337-0.207,0.684-0.207,1.054c0,0.456,0.076,0.848,0.228,1.152c0.152,0.304,0.369,0.543,0.63,0.76
		c0.261,0.218,0.532,0.369,0.848,0.5c0.326,0.141,0.673,0.261,1.01,0.369c0.326,0.109,0.652,0.207,0.989,0.315
		c0.315,0.109,0.608,0.261,0.858,0.424c0.261,0.174,0.456,0.369,0.608,0.608c0.152,0.25,0.228,0.565,0.228,0.946
		c0,0.347-0.054,0.684-0.174,0.989c-0.13,0.304-0.293,0.565-0.522,0.793c-0.228,0.228-0.522,0.413-0.847,0.532
		c-0.337,0.141-0.717,0.185-1.141,0.185c-0.858,0-1.575-0.141-2.151-0.413c-0.011-0.218-0.011-0.446-0.033-0.685
		c-0.011-0.239-0.011-0.446-0.022-0.609c-0.022-0.163-0.022-0.261-0.022-0.272c-0.011-0.25-0.12-0.369-0.337-0.369h-0.359v2.01
		v0.195v0.195c0.924,0.402,1.88,0.598,2.89,0.598c0.543,0,1.032-0.087,1.456-0.261c0.424-0.163,0.793-0.413,1.086-0.696
		c0.282-0.293,0.532-0.641,0.684-1.032c0.152-0.402,0.228-0.826,0.228-1.282C99.822,57.168,99.746,56.809,99.594,56.516z" />
    </g><rect x="-3.5" y="0" fill="none" width="670" height="510.5"/>
</svg>
